<?xml version="1.0" standalone="no"?>
<!DOCTYPE svg PUBLIC "-//W3C//DTD SVG 20010904//EN"
 "http://www.w3.org/TR/2001/REC-SVG-20010904/DTD/svg10.dtd">
<svg version="1.0" xmlns="http://www.w3.org/2000/svg"
 width="260.000000pt" height="260.000000pt" viewBox="0 0 260.000000 260.000000"
 preserveAspectRatio="xMidYMid meet">
<metadata>
Created by potrace 1.11, written by Peter Selinger 2001-2013
</metadata>
<g transform="translate(0.000000,260.000000) scale(0.100000,-0.100000)"
fill="#000000" stroke="none">
<path d="M0 1300 l0 -1300 1300 0 1300 0 0 1300 0 1300 -1300 0 -1300 0 0
-1300z m964 445 c80 -21 136 -62 171 -127 27 -48 30 -61 30 -148 0 -115 -17
-170 -84 -272 -120 -184 -329 -301 -541 -302 l-94 -1 -10 28 c-9 26 3 55 126
301 145 289 178 336 236 336 60 0 68 -49 23 -139 -41 -81 -166 -295 -214 -365
l-39 -58 33 7 c139 28 303 164 375 309 32 65 39 93 42 151 5 97 -19 148 -86
177 -42 19 -54 20 -119 11 -111 -16 -190 -58 -247 -131 -57 -75 -91 -102 -125
-102 -35 0 -51 17 -51 55 0 95 190 234 366 269 92 19 139 19 208 1z m544 -431
c20 -13 29 -14 53 -4 24 10 33 10 54 -4 14 -9 25 -20 25 -24 0 -4 -16 -52 -35
-107 -37 -106 -42 -144 -24 -162 33 -33 173 96 230 210 27 53 47 81 64 87 32
12 54 3 61 -26 l6 -23 37 23 c51 33 143 60 174 52 37 -9 57 -33 57 -69 0 -35
-39 -124 -89 -201 -33 -53 -37 -66 -20 -66 23 0 123 54 195 106 41 30 80 52
85 49 14 -9 11 -53 -6 -79 -17 -25 -122 -99 -190 -134 -69 -35 -151 -55 -174
-42 -55 29 -50 75 20 207 58 108 60 123 21 123 -63 0 -171 -116 -243 -258 -35
-71 -63 -91 -99 -72 -17 9 -21 19 -18 44 l3 32 -47 -32 c-65 -44 -108 -57
-142 -44 -28 10 -56 61 -56 102 0 22 -1 21 -24 -8 -31 -39 -93 -82 -137 -94
-45 -13 -91 3 -125 43 -24 29 -26 37 -21 94 10 123 104 255 203 287 56 18 126
14 162 -10z"/>
<path d="M1360 1223 c-23 -8 -70 -55 -86 -85 -8 -15 -14 -47 -14 -71 0 -78 38
-88 105 -26 54 50 107 131 100 151 -11 28 -67 45 -105 31z"/>
</g>
</svg>
